<svg xmlns="http://www.w3.org/2000/svg" xmlns:xlink="http://www.w3.org/1999/xlink" width="500" zoomAndPan="magnify" viewBox="0 0 375 374.999991" height="500" preserveAspectRatio="xMidYMid meet" version="1.0"><defs><g/></defs><g fill="#000000" fill-opacity="1"><g transform="translate(55.85617, 378.484802)"><g><path d="M 208.5 -106 C 218.164062 -105.664062 225.914062 -102.914062 231.75 -97.75 C 237.582031 -92.582031 241.414062 -86.25 243.25 -78.75 C 245.082031 -71.25 245.082031 -63.75 243.25 -56.25 C 241.414062 -48.75 237.582031 -42.582031 231.75 -37.75 C 225.914062 -32.914062 218.164062 -30.832031 208.5 -31.5 C 185.832031 -32.164062 163.164062 -32 140.5 -31 C 117.832031 -30 95.164062 -27.664062 72.5 -24 C 65.5 -22.664062 58.164062 -23.25 50.5 -25.75 C 42.832031 -28.25 36.414062 -32.332031 31.25 -38 C 26.082031 -43.664062 24.164062 -51 25.5 -60 C 31.164062 -106.332031 37.414062 -152.5 44.25 -198.5 C 51.082031 -244.5 58.5 -290.332031 66.5 -336 C 67.5 -341.664062 69.5 -346.664062 72.5 -351 C 75.164062 -355.664062 79 -359.5 84 -362.5 C 89 -365.5 95.164062 -367.164062 102.5 -367.5 C 138.5 -368.832031 174.5 -368.164062 210.5 -365.5 C 220.164062 -364.832031 227.914062 -361.75 233.75 -356.25 C 239.582031 -350.75 243.414062 -344.25 245.25 -336.75 C 247.082031 -329.25 247.082031 -321.832031 245.25 -314.5 C 243.414062 -307.164062 239.582031 -301.164062 233.75 -296.5 C 227.914062 -291.832031 220.164062 -289.832031 210.5 -290.5 C 185.832031 -292.164062 160.664062 -293 135 -293 C 133.332031 -283.332031 131.664062 -273.664062 130 -264 C 128.332031 -254.332031 126.832031 -244.664062 125.5 -235 C 139.164062 -234.664062 152.332031 -234 165 -233 C 175 -231.664062 183.75 -227.832031 191.25 -221.5 C 198.75 -215.164062 202.5 -206.5 202.5 -195.5 C 202.5 -189.164062 200.75 -183 197.25 -177 C 193.75 -171 189.164062 -166.164062 183.5 -162.5 C 177.832031 -158.832031 171.664062 -157.332031 165 -158 C 148 -159.664062 131 -160.332031 114 -160 C 112.664062 -150.664062 111.332031 -141.25 110 -131.75 C 108.664062 -122.25 107.332031 -112.664062 106 -103 C 123 -104.664062 140 -105.832031 157 -106.5 C 174 -107.164062 191.164062 -107 208.5 -106 Z M 208.5 -106 "/></g></g></g></svg>